<svg id="Layer_2" data-name="Layer 2" xmlns="http://www.w3.org/2000/svg" width="196.527" height="20" viewBox="0 0 196.527 20">
  <g id="Layer_1" data-name="Layer 1">
    <path id="Path_44" data-name="Path 44" d="M0,19.03s24.788-2.794,48.23-2.794c23.945,0,48.879,2.794,48.879,2.794V20s-25.1-2.648-48.873-2.648C24.788,17.37,0,20,0,20Zm9.533-4.564H7.394L3.636,6.879A38.292,38.292,0,0,1,1.9,2.964H1.776c.1,1.212.145,2.655.17,3.982l.079,7.5H1.242c-.9,0-1.212-.873-1.212-1.861V.188H2.339L6.315,8.067a26.842,26.842,0,0,1,1.412,3.448l.127-.042c-.042-.412-.212-2.673-.212-4.242L7.606.188H9.533V14.467Zm35.533-1.485-.5,1.655H36.048V13.1L41.818,4A13.667,13.667,0,0,1,42.83,2.527c-.412.042-.933.061-1.636.061H36.3L36.776.933h8.206V2.527l-5.7,9.091c-.309.539-.642.958-.891,1.37h1.43Zm65.545.382a8.188,8.188,0,0,1-4.242,1.145,5.624,5.624,0,0,1-4.521-1.933,7.764,7.764,0,0,1-1.661-5.345,7.442,7.442,0,0,1,2.467-5.6A5.358,5.358,0,0,1,106.242.418a5.952,5.952,0,0,1,4.061,1.4l-.952,1.242a4.885,4.885,0,0,0-3.03-1.079A3.248,3.248,0,0,0,103.255,3.8a6.521,6.521,0,0,0-.83,3.533,7.327,7.327,0,0,0,1.012,4.315,3.958,3.958,0,0,0,3.067,1.285,4.291,4.291,0,0,0,2.115-.539V8.327h-2.63l-.333-1.636h4.933v6.667ZM121.006,9.2c0,3.3-1.764,5.388-4.521,5.388s-4.5-2.115-4.5-5.491,1.721-5.455,4.461-5.455c3.067,0,4.558,2.424,4.558,5.576Zm-2.133.085c0-3.218-.933-4.188-2.424-4.188-1.661,0-2.345,1.182-2.345,3.794,0,3.17.806,4.242,2.424,4.242,1.455,0,2.345-1.115,2.345-3.83Zm11.667-5.37-3.788,10.467h-1.788L121.255,3.958l1.97-.321,2.055,6.285c.224.7.455,1.533.606,2.236.17-.606.376-1.43.667-2.279l1.97-5.97Zm8.685,5.594H132.9v.248a3.921,3.921,0,0,0,.436,2.073,2.709,2.709,0,0,0,2.388,1.212,3.7,3.7,0,0,0,2.545-.994l.727,1.139a5.309,5.309,0,0,1-3.588,1.358c-2.879,0-4.642-2.091-4.642-5.491a5.659,5.659,0,0,1,1.242-4.024,3.873,3.873,0,0,1,3.145-1.448A3.758,3.758,0,0,1,137.97,4.7c.915.933,1.242,2.091,1.267,4.479v.327ZM137.23,8.1a3.776,3.776,0,0,0-.642-2.345A1.867,1.867,0,0,0,135.1,5.03c-1.448,0-2.176,1.182-2.176,3.073Zm8.921-4.418-.667,1.909a1.424,1.424,0,0,0-.539-.1,2.17,2.17,0,0,0-2.152,2.115v6.667h-1.909V6.667a6.666,6.666,0,0,0-.394-2.594l1.848-.479a4.4,4.4,0,0,1,.352,1.6v.188a3.407,3.407,0,0,1,2.818-1.818,1.927,1.927,0,0,1,.642.1ZM155.242,14.3h-1.885V7.273c0-.933-.085-1.261-.333-1.594a1.273,1.273,0,0,0-1.055-.418,4.206,4.206,0,0,0-2.576,1.327V14.3h-1.885V6.57a5.685,5.685,0,0,0-.394-2.473l1.818-.5a3.308,3.308,0,0,1,.352,1.6,9.42,9.42,0,0,1,1.345-1.018,3.848,3.848,0,0,1,1.927-.515,2.588,2.588,0,0,1,2.424,1.473,3.266,3.266,0,0,1,.248,1.3v7.879Zm14.927,0h-1.891V6.855c0-1.212-.37-1.594-1.242-1.594a3.662,3.662,0,0,0-2.424,1.412V14.3h-1.867V6.9c0-1.158-.333-1.594-1.285-1.594a3.57,3.57,0,0,0-2.382,1.212V14.3h-1.891V6.667a5.666,5.666,0,0,0-.37-2.594l1.794-.436a2.958,2.958,0,0,1,.351,1.455,4.242,4.242,0,0,1,2.921-1.455,2.673,2.673,0,0,1,2.467,1.636,4.469,4.469,0,0,1,3.176-1.636c1.618,0,2.655,1.012,2.655,2.921V14.3ZM180.1,9.509h-6.309v.248a3.927,3.927,0,0,0,.43,2.073,2.715,2.715,0,0,0,2.388,1.212,3.7,3.7,0,0,0,2.545-.994l.727,1.139a5.3,5.3,0,0,1-3.588,1.358c-2.879,0-4.642-2.091-4.642-5.491a5.8,5.8,0,0,1,1.212-4.024,3.873,3.873,0,0,1,3.133-1.43,3.745,3.745,0,0,1,2.818,1.121c.915.933,1.242,2.091,1.267,4.479v.327ZM178.1,8.1a3.776,3.776,0,0,0-.642-2.345,1.861,1.861,0,0,0-1.491-.727c-1.448,0-2.176,1.182-2.176,3.073ZM189.491,14.3h-1.885V7.273c0-.933-.085-1.261-.333-1.594a1.273,1.273,0,0,0-1.055-.418,4.176,4.176,0,0,0-2.582,1.345V14.3h-1.891V6.57a5.685,5.685,0,0,0-.394-2.473l1.818-.5a3.309,3.309,0,0,1,.352,1.6,9.415,9.415,0,0,1,1.345-1.018,3.849,3.849,0,0,1,1.927-.515,2.588,2.588,0,0,1,2.424,1.473,3.267,3.267,0,0,1,.248,1.3v7.879Zm7.036-10.382-.521,1.345h-2.067v6.255c0,1.285.309,1.679,1.345,1.679a2.3,2.3,0,0,0,.976-.206l.224,1.158a4.109,4.109,0,0,1-1.885.436,2.891,2.891,0,0,1-1.764-.515c-.43-.394-.764-.606-.764-2.115V5.285h-1.224V3.915h1.273a22.637,22.637,0,0,1,.121-2.655l1.97-.455c-.079.745-.182,2.048-.182,3.109ZM19.436,9.509H13.085v.248a3.97,3.97,0,0,0,.436,2.085,2.727,2.727,0,0,0,2.424,1.212,3.715,3.715,0,0,0,2.564-1l.733,1.145a5.37,5.37,0,0,1-3.636,1.345c-2.9,0-4.667-2.109-4.667-5.521a5.69,5.69,0,0,1,1.248-4.042,3.885,3.885,0,0,1,3.145-1.43,3.788,3.788,0,0,1,2.848,1.121c.915.939,1.248,2.109,1.267,4.5v.333Zm-2-1.418a3.8,3.8,0,0,0-.642-2.352,1.879,1.879,0,0,0-1.5-.733c-1.455,0-2.188,1.212-2.188,3.085Zm16.4-4.206L30.909,14.406H29.091L27.57,8.715c-.188-.727-.642-2.455-.642-2.455h-.067s-.412,1.77-.558,2.333l-1.564,5.812H22.921L20,3.964l1.964-.327L23.3,9.491c.23,1.042.539,2.564.539,2.564H23.9s.23-1.479.479-2.376l1.582-5.812h1.982L29.4,9.509c.291,1.127.606,2.424.606,2.545h.085c0-.109.333-1.818.479-2.479l1.291-5.709ZM53.273,9.509H46.921v.248a3.97,3.97,0,0,0,.436,2.085,2.739,2.739,0,0,0,2.424,1.212,3.7,3.7,0,0,0,2.558-1l.733,1.145a5.37,5.37,0,0,1-3.636,1.333c-2.9,0-4.667-2.109-4.667-5.521A5.69,5.69,0,0,1,46.018,4.97a3.885,3.885,0,0,1,3.145-1.436A3.788,3.788,0,0,1,52,4.655c.915.939,1.248,2.109,1.267,4.5v.333Zm-2-1.418a3.8,3.8,0,0,0-.642-2.352,1.879,1.879,0,0,0-1.5-.733c-1.455,0-2.182,1.212-2.182,3.085Zm11.842,5.376-.982,1.291a2.382,2.382,0,0,1-1.394-1.5,3.636,3.636,0,0,1-2.958,1.37c-2.085,0-3.376-1.061-3.376-3.061,0-2.424,1.939-3.709,5.309-3.709h.733V7.194c0-1.212-.17-2.061-1.624-2.061a5.745,5.745,0,0,0-3.212,1.212l-.873-1.4A8.218,8.218,0,0,1,59.115,3.57c1.521,0,2.624.564,3.03,1.667a4.727,4.727,0,0,1,.206,1.818c0,.745-.079,2.352-.079,3.873s.042,2.018.855,2.521ZM60.406,9.224c-.291,0-.461-.042-.606-.042-1.436,0-2.315.273-2.733.752a2.024,2.024,0,0,0-.539,1.521,1.59,1.59,0,0,0,1.648,1.818A2.606,2.606,0,0,0,60.364,11.9l.061-2.667Zm7.273,5.1a2.758,2.758,0,0,1-1.212.23,1.776,1.776,0,0,1-1.624-.788,2.649,2.649,0,0,1-.4-1.818V3.467a13.836,13.836,0,0,0-.2-3.048l2-.418a12.915,12.915,0,0,1,.188,2.982v8.442c0,1.1.061,1.352.267,1.539a.685.685,0,0,0,.648.145l.333,1.212Zm9.509-.83-.982,1.291a2.382,2.382,0,0,1-1.394-1.5,3.636,3.636,0,0,1-2.958,1.37c-2.085,0-3.376-1.061-3.376-3.061,0-2.424,1.939-3.709,5.309-3.709h.733v-.7c0-1.212-.17-2.061-1.624-2.061a5.745,5.745,0,0,0-3.212,1.212L68.812,4.97a8.218,8.218,0,0,1,4.376-1.376c1.521,0,2.624.564,3.03,1.667a4.727,4.727,0,0,1,.206,1.818c0,.745-.079,2.352-.079,3.873s.042,2.018.855,2.521ZM74.479,9.255c-.291,0-.461-.042-.606-.042-1.442,0-2.315.273-2.733.752a2.024,2.024,0,0,0-.539,1.521A1.59,1.59,0,0,0,72.248,13.3a2.606,2.606,0,0,0,2.188-1.376L74.5,9.261Zm22.273,5.127H94.933a4.394,4.394,0,0,1-.188-.982,3.479,3.479,0,0,1-2.685,1.145c-2.667,0-4.242-2-4.242-5.291,0-2.248.77-3.976,2.188-4.9a3.636,3.636,0,0,1,2.042-.606,3.1,3.1,0,0,1,2.539,1.212c0-.291-.042-1.885-.042-2.594V.145l1.921.315V10.818a12.491,12.491,0,0,0,.291,3.5Zm-2.206-2.709V6.218a2.679,2.679,0,0,0-2.212-.982A2.048,2.048,0,0,0,90.515,6.3a5.582,5.582,0,0,0-.539,2.879c0,2.018.248,2.582.812,3.164a1.958,1.958,0,0,0,1.539.545,2.479,2.479,0,0,0,2.212-1.212Zm-8.352,2.648H84.3V7.273c0-.939-.079-1.273-.333-1.606A1.3,1.3,0,0,0,82.9,5.255a4.2,4.2,0,0,0-2.582,1.333v7.733h-.964c-.606,0-.933-.455-.933-1.17v-6.6a5.685,5.685,0,0,0-.394-2.479l1.818-.5A3.333,3.333,0,0,1,80.2,5.176a9.533,9.533,0,0,1,1.358-1.024,3.879,3.879,0,0,1,1.921-.515,2.624,2.624,0,0,1,2.461,1.479,3.345,3.345,0,0,1,.248,1.315v7.879Z" fill="#fff"/>
  </g>
</svg>
